<svg viewBox="0 0 512 512" xmlns="http://www.w3.org/2000/svg"><path d="M417.875 46H94.213A13.258 13.258 0 0 0 81 59.213v393.662A13.184 13.184 0 0 0 94.213 466h323.662A13.107 13.107 0 0 0 431 452.875V59.213A13.181 13.181 0 0 0 417.875 46ZM238.5 396.35H151a13.125 13.125 0 0 1 0-26.25h87.5c17.23.267 17.276 25.974 0 26.25Zm0-96.25H151a13.125 13.125 0 0 1 0-26.25h87.5c17.23.267 17.276 25.974 0 26.25Zm35.35-105.35c-.256 17.235-25.983 17.267-26.25-.001v-67.987a41.387 41.387 0 0 1 82.775 0v67.988c-.282 17.246-25.968 17.265-26.25-.001v-18.462H273.85Zm96.425 176.224-43.05 43.05a12.698 12.698 0 0 1-9.275 3.85 12.987 12.987 0 0 1-9.275-3.85l-18.2-18.2c-11.919-12.347 6.203-30.636 18.55-18.55l8.925 8.924 33.774-33.774c12.48-11.923 30.587 6.235 18.552 18.55Zm0-96.25-43.05 43.05a12.698 12.698 0 0 1-9.275 3.85 12.987 12.987 0 0 1-9.275-3.85l-18.2-18.2c-11.919-12.347 6.203-30.636 18.55-18.55l8.925 8.924 33.774-33.774c12.48-11.923 30.587 6.235 18.552 18.55Z" fill="#e71d36" class="fill-000000"></path><path d="M304.125 126.762a15.137 15.137 0 0 0-30.275 0v23.275h30.275Z" fill="#e71d36" class="fill-000000"></path></svg>