<svg xmlns="http://www.w3.org/2000/svg" xmlns:xlink="http://www.w3.org/1999/xlink" width="500" zoomAndPan="magnify" viewBox="0 0 375 374.999991" height="500" preserveAspectRatio="xMidYMid meet" version="1.0"><defs><g/></defs><g fill="#000000" fill-opacity="1"><g transform="translate(6.985277, 228.340268)"><g><path d="M 38.09375 -69.953125 C 49.3125 -69.953125 57.273438 -68.125 61.984375 -64.46875 C 66.703125 -60.820312 69.0625 -55.21875 69.0625 -47.65625 L 69.0625 0 L 52.5 0 L 50.71875 -8.03125 C 49.269531 -5.3125 46.613281 -3.078125 42.75 -1.328125 C 38.882812 0.410156 34.234375 1.28125 28.796875 1.28125 C 21.066406 1.28125 15.203125 -0.457031 11.203125 -3.9375 C 7.210938 -7.425781 5.21875 -12.695312 5.21875 -19.75 C 5.21875 -27.476562 7.550781 -33.019531 12.21875 -36.375 C 16.894531 -39.726562 23.992188 -41.40625 33.515625 -41.40625 L 50.59375 -41.40625 L 50.59375 -43.203125 C 50.59375 -46.085938 50.207031 -48.335938 49.4375 -49.953125 C 48.675781 -51.566406 47.234375 -52.734375 45.109375 -53.453125 C 42.984375 -54.171875 39.925781 -54.53125 35.9375 -54.53125 C 30.664062 -54.53125 25.78125 -54.109375 21.28125 -53.265625 L 21.28125 -68.9375 C 26.882812 -69.613281 32.488281 -69.953125 38.09375 -69.953125 Z M 33.515625 -12.875 C 37.585938 -12.875 41.128906 -13.613281 44.140625 -15.09375 C 47.160156 -16.582031 49.3125 -18.515625 50.59375 -20.890625 L 50.59375 -28.921875 L 36.3125 -28.921875 C 31.550781 -28.921875 28.21875 -28.328125 26.3125 -27.140625 C 24.40625 -25.953125 23.453125 -23.703125 23.453125 -20.390625 C 23.453125 -17.753906 24.253906 -15.84375 25.859375 -14.65625 C 27.472656 -13.46875 30.023438 -12.875 33.515625 -12.875 Z M 33.515625 -12.875 "/></g></g></g><g fill="#000000" fill-opacity="1"><g transform="translate(85.727937, 228.340268)"><g><path d="M 29.171875 -54.28125 L 29.171875 -23.578125 C 29.171875 -20.859375 29.382812 -18.796875 29.8125 -17.390625 C 30.238281 -15.992188 31.003906 -15.019531 32.109375 -14.46875 C 33.210938 -13.914062 34.867188 -13.640625 37.078125 -13.640625 C 39.285156 -13.640625 41.113281 -13.804688 42.5625 -14.140625 L 42.5625 0.125 C 39.582031 0.550781 36.609375 0.765625 33.640625 0.765625 C 27.773438 0.765625 23.207031 0.109375 19.9375 -1.203125 C 16.664062 -2.523438 14.304688 -4.820312 12.859375 -8.09375 C 11.421875 -11.363281 10.703125 -16.015625 10.703125 -22.046875 L 10.703125 -54.28125 L 1.65625 -54.28125 L 1.65625 -68.8125 L 10.703125 -68.8125 L 10.703125 -85.125 L 29.171875 -85.125 L 29.171875 -68.8125 L 43.453125 -68.8125 L 43.453125 -54.28125 Z M 29.171875 -54.28125 "/></g></g></g><g fill="#000000" fill-opacity="1"><g transform="translate(131.342608, 228.340268)"><g><path d="M 49.3125 -70.078125 C 57.550781 -70.078125 63.410156 -68.207031 66.890625 -64.46875 C 70.378906 -60.738281 72.125 -54.921875 72.125 -47.015625 L 72.125 0 L 53.640625 0 L 53.640625 -42.171875 C 53.640625 -47.015625 52.875 -50.367188 51.34375 -52.234375 C 49.820312 -54.109375 46.851562 -55.046875 42.4375 -55.046875 C 38.4375 -55.046875 35.25 -54.320312 32.875 -52.875 C 30.5 -51.4375 28.800781 -49.015625 27.78125 -45.609375 L 27.78125 0 L 9.296875 0 L 9.296875 -68.8125 L 27.78125 -68.8125 L 27.78125 -60.53125 C 29.5625 -63.664062 32.320312 -66.039062 36.0625 -67.65625 C 39.800781 -69.269531 44.21875 -70.078125 49.3125 -70.078125 Z M 49.3125 -70.078125 "/></g></g></g><g fill="#000000" fill-opacity="1"><g transform="translate(212.378749, 228.340268)"><g><path d="M 72.375 -96.84375 L 72.375 0 L 55.6875 0 L 54.28125 -9.5625 C 51.21875 -2.332031 44.207031 1.28125 33.25 1.28125 C 26.03125 1.28125 20.425781 -0.140625 16.4375 -2.984375 C 12.445312 -5.835938 9.664062 -9.832031 8.09375 -14.96875 C 6.519531 -20.113281 5.734375 -26.59375 5.734375 -34.40625 C 5.734375 -45.53125 7.726562 -54.253906 11.71875 -60.578125 C 15.71875 -66.910156 22.894531 -70.078125 33.25 -70.078125 C 39.195312 -70.078125 43.785156 -69.226562 47.015625 -67.53125 C 50.242188 -65.832031 52.582031 -63.328125 54.03125 -60.015625 L 54.03125 -96.84375 Z M 39.125 -12.734375 C 45.15625 -12.734375 49.296875 -14.492188 51.546875 -18.015625 C 53.796875 -21.546875 54.921875 -27.007812 54.921875 -34.40625 C 54.921875 -41.539062 53.75 -46.976562 51.40625 -50.71875 C 49.070312 -54.457031 44.976562 -56.328125 39.125 -56.328125 C 35.039062 -56.328125 31.957031 -55.367188 29.875 -53.453125 C 27.800781 -51.546875 26.421875 -49.039062 25.734375 -45.9375 C 25.054688 -42.832031 24.71875 -38.988281 24.71875 -34.40625 C 24.71875 -29.644531 25.054688 -25.734375 25.734375 -22.671875 C 26.421875 -19.617188 27.820312 -17.195312 29.9375 -15.40625 C 32.0625 -13.625 35.125 -12.734375 39.125 -12.734375 Z M 39.125 -12.734375 "/></g></g></g><g fill="#000000" fill-opacity="1"><g transform="translate(294.051945, 228.340268)"><g><path d="M 9.5625 9.5625 C 15.164062 9.5625 19.257812 8.753906 21.84375 7.140625 C 24.4375 5.523438 26.285156 2.929688 27.390625 -0.640625 L 0.640625 -68.8125 L 21.15625 -68.8125 L 37.328125 -19.75 L 38.09375 -19.75 L 53.390625 -68.8125 L 73.265625 -68.8125 L 50.203125 -6.375 C 47.054688 2.207031 43.890625 8.726562 40.703125 13.1875 C 37.523438 17.644531 33.554688 20.804688 28.796875 22.671875 C 24.035156 24.546875 17.625 25.484375 9.5625 25.484375 Z M 9.5625 9.5625 "/></g></g></g><path stroke-linecap="round" transform="matrix(0.749987, 0.00443756, -0.00443756, 0.749987, 107.660717, 83.618966)" fill="none" stroke-linejoin="miter" d="M 16.287403 44.250998 C 78.243531 0.560734 140.192681 0.584822 202.145207 44.312784 " stroke="#e71d36" stroke-width="23" stroke-opacity="1" stroke-miterlimit="4"/></svg>